<svg xmlns="http://www.w3.org/2000/svg" viewBox="0 0 119.7 97.75"><defs><style>.cls-1{fill:#399ee5;}.cls-2{fill:none;stroke:#fff;stroke-linecap:round;stroke-linejoin:round;}.cls-3{fill:#fff;}</style></defs><g id="Calque_2" data-name="Calque 2"><g id="Livre_V" data-name="Livre V"><path class="cls-1" d="M119.37,88.66c-4.11,0-45.78.45-55.44,9a.31.31,0,0,1-.22.09H56a.31.31,0,0,1-.22-.09c-9.66-8.55-51.33-9-55.44-9a.31.31,0,0,1-.33-.3V16.23a.3.3,0,0,1,.29-.3c3.89-.43,45.78-4.72,55.47,9a.36.36,0,0,0,.27.14h7.64a.35.35,0,0,0,.27-.14c9.69-13.7,51.58-9.41,55.47-9a.3.3,0,0,1,.29.3V88.36A.31.31,0,0,1,119.37,88.66Z"/><path class="cls-1" d="M58.77,23.7C49.89,10.72,10.37,12,6.32,12A.32.32,0,0,1,6,11.7V7.85a.32.32,0,0,1,.31-.31c3.91-.18,43.57-2.64,52.47,15.55Z"/><path class="cls-1" d="M58.48,19.88C50.68,6.06,15.92,4.79,12.35,4.46a.31.31,0,0,1-.3-.3V.31A.32.32,0,0,1,12.4,0c3.87.21,38.32.37,46.08,19.26Z"/><path class="cls-1" d="M60.8,23.09C69.71,4.9,109.47,7.36,113.39,7.54a.33.33,0,0,1,.32.31V11.7a.33.33,0,0,1-.34.31C109.31,12,69.7,10.72,60.8,23.7Z"/><path class="cls-1" d="M61.09,19.26C68.87.37,103.4.21,107.28,0a.32.32,0,0,1,.35.31V4.16a.32.32,0,0,1-.3.3c-3.58.33-38.42,1.6-46.24,15.42Z"/><line class="cls-2" x1="56.03" y1="41.11" x2="56.03" y2="81.22"/><line class="cls-2" x1="63.94" y1="41.11" x2="63.94" y2="81.22"/><path class="cls-2" d="M110.7,55.92c-2.59-.43-27.72-2.87-36.89,5"/><path class="cls-2" d="M110.7,61.6c-2.59-.43-27.72-2.88-36.89,5"/><path class="cls-2" d="M110.7,67.28c-2.59-.43-27.72-2.88-36.89,5"/><path class="cls-2" d="M87.25,72.84c-3.88.37-7.18.66-13.44,5.1"/><path class="cls-3" d="M74,31.82c8.93-7.37,32.18-5.44,36.3-4.89a.47.47,0,0,1,.41.47V48.46a.48.48,0,0,1-.54.48c-4.33-.55-26.37-2.32-35.6,4.46a.48.48,0,0,1-.75-.39V32.2A.49.49,0,0,1,74,31.82Z"/></g></g></svg>