<?xml version="1.0" encoding="utf-8"?>
<!-- Generator: Adobe Illustrator 25.0.1, SVG Export Plug-In . SVG Version: 6.00 Build 0)  -->
<svg version="1.1" id="Calque_1" xmlns="http://www.w3.org/2000/svg" xmlns:xlink="http://www.w3.org/1999/xlink" x="0px" y="0px"
	 viewBox="0 0 4096 1714" style="enable-background:new 0 0 4096 1714;" xml:space="preserve">
<style type="text/css">
	.st0{fill:#FFFFFF;}
</style>
<g>
	<g>
		<path class="st0" d="M3843.55,740.96c-10.97,0-21.23,0-31.79,0c-0.61-1.3-1.32-2.4-1.67-3.61
			c-12.38-42.97-41.98-66.95-84.82-74.81c-27.79-5.1-55.22-1.88-80.82,10.92c-29.82,14.92-47.73,40.08-57.27,71.13
			c-11.81,38.44-15.43,77.81-6.98,117.43c8.21,38.47,27.52,69.76,62.98,89.27c24.38,13.42,50.57,15.67,77.58,11.79
			c50.23-7.21,87.47-45.34,93.6-97.51c1.16-9.85,2.04-19.73,3.16-30.71c-38.87,0-76.67,0-114.99,0c0-9.53,0-18.05,0-27.18
			c48.19,0,96.36,0,145.05,0c0,58.38,0,116.55,0,175.38c-8.56,0-17.08,0-27.08,0c-0.03-8.89-0.07-18.08-0.08-27.27
			c-0.01-8.92,0-17.84-1.52-27.44c-2.93,4.13-5.81,8.31-8.81,12.39c-19.28,26.15-45.01,41.98-76.88,47.96
			c-31.29,5.87-62.3,5.65-92.66-4.95c-33.72-11.78-58.05-34.34-74.38-65.86c-13.72-26.49-19.91-55.03-21.8-84.47
			c-1.91-29.71-0.5-59.29,7.63-88.2c16.01-56.96,51.09-95.39,109.85-108.05c41.36-8.91,82.27-5.66,120.39,15.02
			C3811.46,668.04,3837.04,699.67,3843.55,740.96z"/>
	</g>
	<g>
		<path class="st0" d="M1655.38,688.57c0,97.88,0,195.77,0,294.39c-10.7,0-20.84,0-31.08,0c-1.78-6.64-2.36-327.01-0.45-340.46
			c11.76,0,23.6,0,36,0c65.14,98.47,130.45,197.19,195.76,295.92c0.65-0.18,1.3-0.36,1.94-0.54c0-98.32,0-196.64,0-295.44
			c11.25,0,21.39,0,32,0c0,113.61,0,226.77,0,340.6c-12.24,0-24.41,0-37.35,0c-64.64-98.03-129.63-196.59-194.61-295.14
			C1656.85,688.12,1656.12,688.35,1655.38,688.57z"/>
	</g>
	<g>
		<path class="st0" d="M3245.3,688.49c0,98.09,0,196.18,0,294.74c-11.1,0-21.24,0-31.9,0c0-113.6,0-226.77,0-340.6
			c12.01,0,23.84,0,36.53,0c64.94,98.17,130.3,196.97,195.64,295.73c0.89-0.51,1.2-0.64,1.46-0.84c0.24-0.18,0.6-0.43,0.6-0.65
			c0.15-97.63,0.27-195.26,0.42-292.89c0-0.28,0.27-0.56,0.72-1.43c9.82,0,19.95,0,30.68,0c0,113.29,0,226.45,0,340.39
			c-11.91,0-24.06,0-37.32,0c-64.46-97.76-129.47-196.35-194.49-294.95C3246.86,688.15,3246.08,688.32,3245.3,688.49z"/>
	</g>
	<g>
		<path class="st0" d="M1241.77,813.11c-0.03-32.01,4.89-63.16,18.74-92.2c28.24-59.19,75.73-88.16,141.17-87.83
			c31.31,0.16,60.6,7.4,87,24.95c25.54,16.98,44.02,39.96,54.82,68.25c23.34,61.2,23.84,122.77-4.61,182.36
			c-24.89,52.13-68.02,79.54-125.74,83.38c-21.74,1.45-43.36,0.06-64.2-6.87c-45.29-15.06-75.66-45.82-92.87-89.9
			C1245.79,868.89,1241.64,841.34,1241.77,813.11z M1273.94,813.61c-0.19,18.44,2.1,36.62,6.59,54.43
			c6.82,27.04,19.08,51.16,40.61,69.63c21.95,18.84,47.89,26.23,76.48,27.15c52.22,1.69,95.36-24.93,115.13-73.22
			c17.89-43.7,19.03-88.77,8.06-134.3c-6.13-25.44-17.78-48.07-37.09-66.13c-22.25-20.81-49.37-29.7-79.29-30.54
			c-49.12-1.39-86.26,19.11-110.04,62.34C1278.9,751.11,1274.39,781.97,1273.94,813.61z"/>
	</g>
	<g>
		<path class="st0" d="M1948.96,882.1c3.21-0.19,5.48-0.42,7.75-0.43c7.63-0.05,15.26-0.02,22.98-0.02
			c1.42,7.16,2.41,13.74,4.07,20.16c7.61,29.5,26.02,49.16,55.23,57.67c25.09,7.31,50.68,7.83,75.91,0.48
			c36.77-10.7,55.56-41.44,48.93-79.11c-2.38-13.52-10.05-23.74-20.67-31.94c-12.35-9.53-26.63-14.95-41.52-18.88
			c-25.72-6.78-51.63-12.89-77.2-20.2c-19.15-5.47-36.03-15.18-49.45-30.51c-25.87-29.53-28.15-93.3,20.56-125.54
			c14.95-9.9,31.39-16.05,49.09-18.55c25.32-3.57,50.46-3.29,75.1,4.7c41.95,13.61,67.92,49.59,67.39,94.8
			c-10.01,0.45-20.07,0.31-30.33,0.04c-0.48-5.47-0.55-10.16-1.35-14.71c-4.02-22.9-16.18-40.26-37.44-49.74
			c-30.74-13.71-62.17-13.79-92.89,0.08c-20.05,9.05-32.88,24.87-36,47.1c-2.83,20.22,2.91,37.55,19.76,50.27
			c12.18,9.2,26.2,14.4,40.74,18.22c26.05,6.84,52.22,13.23,78.25,20.1c6.4,1.69,12.66,4.15,18.69,6.9
			c35.2,16.06,52.33,44.02,50.94,82.72c-1.58,44.28-24.18,74.81-66.5,88.29c-35.48,11.3-71.57,11.83-107.34,1.63
			c-44.34-12.65-71.41-47.39-74.17-93.45C1949.31,889.22,1949.17,886.26,1948.96,882.1z"/>
	</g>
	<g>
		<path class="st0" d="M474.91,875.9c14.55,0,29.14,0,44.2,0c0.91,6.17,1.6,12.37,2.75,18.49c5.93,31.48,23.91,52.11,55.27,60.1
			c22.66,5.77,45.55,6.26,68.11-0.32c33.02-9.63,49.32-35.29,44.66-69.24c-1.8-13.07-9.14-22.66-19.41-30.23
			c-11.42-8.43-24.5-13.3-38.11-16.83c-25.42-6.61-50.97-12.78-76.23-19.94c-9.5-2.69-18.71-6.99-27.47-11.64
			c-57.56-30.6-58.04-105.87-20.86-143.75c13.64-13.9,29.85-23.41,48.38-28.75c34.15-9.85,68.41-10.3,102.13,1.67
			c45.18,16.03,69.59,54.65,69.09,103.84c-0.01,0.93-0.45,1.85-0.82,3.27c-2.24,0.2-4.5,0.55-6.75,0.56
			c-12.27,0.06-24.54,0.03-37.99,0.03c0-5.47,0.32-10.07-0.05-14.61c-1.74-21.34-10.78-38.83-30.19-48.63
			c-31.38-15.83-63.62-16.16-94.91,0.16c-22.97,11.98-32.74,35.88-26.78,59.91c2.83,11.41,9.94,19.37,19.42,25.58
			c12.71,8.33,26.98,12.81,41.56,16.43c21.62,5.37,43.35,10.33,64.88,16.06c9.27,2.47,18.44,5.79,27.17,9.79
			c40.02,18.33,56.7,50.05,54.08,92.43c-2.93,47.52-27.63,78.51-73.58,92.27c-37.91,11.35-76.31,11.76-114.09-0.7
			C499.97,975.55,471.2,931.96,474.91,875.9z M712.54,728.13c-0.48-4.45-0.59-8.4-1.37-12.21c-6.91-33.93-26.89-56.97-59.6-67.66
			c-33.64-11-67.56-10.01-100.8,2.6c-13.57,5.15-25.17,13.34-35,24.18c-27.56,30.42-28.98,92.62,19.59,118.66
			c7.58,4.06,15.54,7.87,23.78,10.16c25.62,7.13,51.48,13.38,77.19,20.18c15.53,4.1,30.41,9.84,43.36,19.66
			c12.66,9.6,21.54,21.73,24.15,37.73c6.63,40.74-14.1,74.52-53.62,86.28c-25.8,7.68-52.03,7.28-77.93,0.32
			c-35.2-9.46-56.02-32.9-64.09-68.1c-0.74-3.21-1.26-6.46-1.84-9.51c-6.1,0-11.55,0-17.02,0c2,44.79,26.94,76.82,69.13,89.42
			c23.37,6.98,47.23,7.62,71.26,5.17c16.66-1.7,32.81-5.57,47.79-13.34c23.6-12.24,39.09-31.01,43.47-57.48
			c1.78-10.72,1.72-21.92,1.06-32.81c-1.3-21.53-11.4-38.6-28.84-51.29c-10.07-7.33-21.24-12.63-33.18-15.81
			c-24.09-6.43-48.35-12.2-72.51-18.36c-18.13-4.63-35.74-10.44-50.97-21.94c-14.59-11.02-21.89-25.87-22.45-43.74
			c-0.97-31.06,13.99-53.1,41.51-65.82c30.12-13.92,61.47-13.91,92.32-2.22c25.86,9.8,41.83,28.76,47,56.29
			c0.6,3.18,1.17,6.36,1.77,9.64C702.06,728.13,706.9,728.13,712.54,728.13z"/>
	</g>
	<g>
		<path class="st0" d="M2256.61,642.33c10.72,0,20.64,0,31.91,0c0,3.54,0,7.06,0,10.57c0,62.32-0.05,124.63,0.03,186.95
			c0.03,19,1.11,37.92,5.28,56.58c8.89,39.73,31.56,61.35,71.86,66.94c18.88,2.62,37.94,2.37,56.67-1.87
			c35.26-7.99,54.18-31.46,61.65-65.69c4-18.36,4.6-36.97,4.6-55.64c0.01-61.98,0-123.96,0.01-185.95c0-3.62,0-7.24,0-11.55
			c10.8,0,20.94,0,31.85,0c0.21,2.26,0.65,4.8,0.65,7.34c0.04,67.31,0.11,134.63-0.03,201.94c-0.04,19.69-1.45,39.28-7.18,58.31
			c-11.6,38.56-35.68,64.97-75.09,75.73c-33.12,9.04-66.54,9.08-99.69,0.09c-39.45-10.7-63.42-37.24-75.27-75.62
			c-5.35-17.33-7.47-35.18-7.52-53.21c-0.18-69.98-0.1-139.96-0.1-209.94C2256.24,646.01,2256.43,644.71,2256.61,642.33z"/>
	</g>
	<g>
		<path class="st0" d="M1158.8,871.44c11.02,0,21.62,0,33,0c-3.25,17.17-9.17,32.91-17.01,47.88
			c-21.71,41.41-56.36,64.45-102.29,71.09c-21.26,3.08-42.59,3.27-63.6-1.34c-45.84-10.06-76.66-38.28-94.67-80.88
			c-13.59-32.15-17.13-66.16-16.76-100.74c0.31-29.17,3.81-57.71,14.77-85.05c19.47-48.59,55.06-77.28,106.48-86.09
			c29.2-5,58.46-5.21,87,3.95c43.79,14.05,69.67,44.69,80.35,88.86c0.85,3.5,1.36,7.09,2.18,11.46c-11.06,0-21.48,0-32.59,0
			c-0.61-1.8-1.28-3.94-2.04-6.05c-2.46-6.88-4.6-13.9-7.5-20.6c-9.78-22.65-26.56-37.97-49.89-45.85
			c-24.16-8.15-48.93-9.92-73.91-4.9c-33.29,6.69-56.56,26.76-72.43,56.11c-11.1,20.53-16.53,42.78-18.78,65.79
			c-3.51,35.86-1.26,71.28,11.17,105.39c11.88,32.58,32.68,57.71,66.59,68.18c35.8,11.05,71.17,9.75,103.17-12.71
			c22.78-15.99,35.81-38.89,43.9-64.97C1156.89,877.82,1157.82,874.67,1158.8,871.44z"/>
	</g>
	<g>
		<path class="st0" d="M2896.15,669.88c-36.14,0-71.34,0-107.32,0c0-9.33,0-18.06,0-27.35c82.14,0,164.26,0,247.02,0
			c0,8.7,0,17.5,0,27.17c-35.6,0-71.07,0-107.46,0c0,104.92,0,208.99,0,313.52c-10.81,0-20.69,0-30.72,0
			c-0.11-0.1-0.37-0.32-0.59-0.56c-0.22-0.23-0.54-0.48-0.58-0.75c-0.17-0.98-0.33-1.98-0.33-2.97
			C2896.15,876.37,2896.15,773.8,2896.15,669.88z"/>
	</g>
	<g>
		<path class="st0" d="M275.33,949.72c61.68,0,121.64,0,182.3,0c0,13.79,0,27.27,0,41.41c-75.89,0-151.93,0-228.53,0
			c0-118.14,0-236.01,0-354.6c15,0,30.11,0,46.24,0C275.33,740.57,275.33,844.7,275.33,949.72z M243.66,650.32
			c0,109.34,0,217.79,0,326.5c67.03,0,133.46,0,199.79,0c0-4.52,0-8.34,0-13.16c-61.05,0-121.48,0-182.37,0c0-27,0-52.98,0-78.95
			c0-25.99,0-51.97,0-77.96c0-26.32,0.1-52.64-0.03-78.96c-0.13-25.78,0.6-51.58-0.47-77.47
			C254.44,650.32,249.5,650.32,243.66,650.32z"/>
	</g>
	<g>
		<path class="st0" d="M2630.97,955.98c62.03,0,122.26,0,182.78,0c0,9.48,0,18.34,0,27.47c-71.4,0-142.33,0-213.22,0
			c-2.21-6.95-3.11-321.64-0.93-340.85c10.05,0,20.2,0,31.38,0C2630.97,746.55,2630.97,850.66,2630.97,955.98z"/>
	</g>
	<g>
		<path class="st0" d="M3125.76,983.19c-10.88,0-20.75,0-31.09,0c0-113.61,0-226.73,0-340.53c10.21,0,20.33,0,31.09,0
			C3125.76,755.94,3125.76,869.32,3125.76,983.19z"/>
	</g>
	<g>
		<path class="st0" d="M1499.07,1149.47c-3.94,0-6.9,0-11.23,0c0-3.63,0-7.17,0-10.7c0-10.99,0.11-21.98-0.05-32.96
			c-0.13-8.59-2.66-11.7-9.61-12.56c-7.01-0.87-14,2.93-15.75,9.43c-1.19,4.43-1.38,9.21-1.47,13.84
			c-0.2,10.62-0.06,21.26-0.06,32.69c-3.65,0.2-6.77,0.38-11.13,0.62c0-9.8,0-18.99,0-28.17c0-5.33,0.15-10.66-0.07-15.98
			c-0.33-8.18-2.79-11.59-8.65-12.64c-6.01-1.07-13.31,2.22-15.67,8.21c-1.78,4.53-2.67,9.63-2.85,14.52
			c-0.41,10.95-0.13,21.94-0.13,33.43c-3.67,0-6.83,0-10.4,0c0-21.4,0-42.63,0-64.25c5.43-1.91,9.97-1.78,11.79,4.97
			c17.17-10.06,24.48-9.65,35.22,2.05c2.16-1.72,4.26-3.64,6.6-5.2c14.5-9.64,31.97-2.24,33.21,14.91
			C1499.95,1117.2,1499.07,1132.85,1499.07,1149.47z"/>
	</g>
	<g>
		<path class="st0" d="M2154.48,1149.43c-12.86,0.45-12.86,0.45-22.28-9.21c-1.98,1.58-3.98,3.22-6.03,4.79
			c-9.85,7.53-20.83,8.65-32.07,4.43c-15.73-5.89-19.2-28.71-6.4-40.87c3.31-3.15,7.22-5.68,11.3-8.84
			c-2.01-3.34-4.04-6.29-5.65-9.44c-4.61-9.02-3.2-18.48,3.5-24.66c6.84-6.31,19.12-7.39,26.95-2.38
			c9.66,6.19,11.03,19.87,2.71,29.74c-2.73,3.24-6.19,5.87-9.97,9.39c4.91,5.84,9.7,11.54,15.34,18.26
			c1.7-4.92,2.96-8.55,4.39-12.69c2.98,0,6.11,0,10.44,0c-2.37,7.99-4.52,15.22-6.79,22.9
			C2144.36,1136.53,2149,1142.44,2154.48,1149.43z M2105.88,1107.79c-8.88,5.44-16.31,10.98-14.31,22.36
			c1,5.69,5.97,10.19,12.41,11.48c8.21,1.64,16.41-2.34,21.62-10.66c-5.64-6.89-11.33-13.85-17.06-20.78
			C2107.93,1109.45,2107.11,1108.88,2105.88,1107.79z M2110.31,1095.64c3.92-4.23,7.29-7.01,9.54-10.5
			c3.19-4.94,2.11-10.31-1.82-13.49c-3.26-2.64-9.72-2.7-13.07-0.12c-3.41,2.63-4.68,7.86-2.31,12.71
			C2104.36,1087.73,2106.99,1090.77,2110.31,1095.64z"/>
	</g>
	<g>
		<path class="st0" d="M1604.01,1140.51c3.01,1.08,5.09,1.82,7.3,2.61c-0.12,2.27-0.23,4.22-0.32,5.9
			c-5.83,4.02-12.63,1.7-17.87-5.14c-6.64,2.66-12.82,6.36-19.45,7.55c-14.47,2.6-25.22-7.69-23.97-21.7
			c0.75-8.36,5.64-13.59,13.23-15.71c7-1.95,14.32-2.82,21.55-3.79c4.31-0.58,7.91-1.55,8.54-6.59c0.6-4.76-2.14-8.66-7.3-10.49
			c-10.58-3.76-18.34-0.25-23.22,10.76c-2.76,0-5.68,0-8.58,0c-0.17-10.79,3.02-15.94,12.17-19.17c8.79-3.11,17.68-2.78,26.42,0.33
			c7.82,2.78,11.57,8.46,11.52,16.78C1603.96,1114.49,1604.01,1127.12,1604.01,1140.51z M1591.86,1117.62
			c-8.09,1.55-15.61,2.6-22.92,4.51c-5.83,1.52-8.26,5.7-7.69,11.06c0.54,5.02,4.31,8.28,10.24,8.87
			C1585.74,1143.46,1593.78,1134.19,1591.86,1117.62z"/>
	</g>
	<g>
		<path class="st0" d="M2696.8,1119.99c-0.33,11.96,3.52,18.94,10.95,21.35c9.54,3.1,16.68-0.31,24.82-12.03c2.75,0,5.67,0,9.14,0
			c0.12,6.09-3.07,10.32-6.64,14.03c-14.36,14.89-40.57,9.97-48.24-9.18c-4.52-11.28-4.25-22.82,0.86-33.97
			c5.73-12.49,17.59-18.88,30.9-16.98c13.47,1.93,21.56,10.02,23.96,24.26c0.65,3.87,0.8,7.83,1.26,12.52
			C2727.85,1119.99,2712.65,1119.99,2696.8,1119.99z M2696.7,1111.43c11.53,0,23.04,0,34.56,0c-0.77-12.61-6.64-19.06-17.06-19.07
			C2704.21,1092.35,2697.57,1099.45,2696.7,1111.43z"/>
	</g>
	<g>
		<path class="st0" d="M2634.43,1102.74c-2.88,0.16-5.74,0.33-8.32,0.47c-5.95-9.92-12.28-12.97-21.48-10.67
			c-4.18,1.05-7.59,3.25-7.86,7.87c-0.24,4.19,2.64,6.75,6.38,7.92c6.34,1.99,12.81,3.55,19.16,5.5
			c10.89,3.35,15.31,8.44,15.16,17.1c-0.16,9.03-6.17,17.14-15.86,19.37c-6.02,1.39-12.6,1.81-18.72,1.03
			c-11.81-1.51-17.22-8.13-18.85-21.83c3.12-0.18,6.2-0.36,9.04-0.53c5.45,12.33,13.29,16.22,24.8,12.57c4.27-1.35,8-3.5,8.27-8.79
			c0.28-5.51-3.32-7.54-7.79-8.8c-6.72-1.9-13.55-3.45-20.13-5.74c-10.61-3.69-14.29-9.91-12.33-19.67
			c0.13-0.65,0.25-1.31,0.45-1.94c3.08-9.49,14.59-15.37,27.19-13.89C2626.93,1084.3,2633.23,1090.15,2634.43,1102.74z"/>
	</g>
	<g>
		<path class="st0" d="M1793.03,1116.43c0.58-3.14,0.96-8.53,2.59-13.51c4.45-13.62,15.79-21.27,29.56-20.59
			c14.25,0.7,25.13,9.62,27.58,24.14c1.13,6.69,0.86,13.98-0.49,20.65c-3.57,17.68-15.64,26.31-32.97,24.68
			c-14.9-1.4-24.59-12.36-25.84-29.23C1793.36,1121.24,1793.27,1119.91,1793.03,1116.43z M1842.56,1117.35
			c-0.5-4.21-0.54-7.91-1.42-11.41c-2.16-8.57-7.86-13.25-16.1-13.79c-8.8-0.57-15.21,3.54-18.29,12.25
			c-2.82,8-3.4,16.18-0.77,24.43c2.9,9.12,8.35,13.35,17.41,13.34c8.95-0.01,13.69-3.44,16.63-12.72
			C1841.31,1125.4,1841.8,1121.09,1842.56,1117.35z"/>
	</g>
	<g>
		<path class="st0" d="M1280.86,1117.54c-0.54,3.05-0.92,8.43-2.48,13.43c-4.55,14.54-14.8,21.44-30.08,20.93
			c-14-0.47-23.51-8.74-27.08-23.39c-2.19-9.01-1.51-17.88,1.55-26.49c4.78-13.44,17.44-21.18,31.31-19.55
			c14.79,1.74,24.76,11.92,26.24,26.84C1280.51,1111.3,1280.58,1113.29,1280.86,1117.54z M1230.91,1117.61
			c1.05,4.77,1.52,9.46,3.13,13.71c3.01,7.95,8.45,11.09,17.06,10.85c8.15-0.23,12.49-3.33,15.54-11.47
			c3.11-8.29,3.73-16.79,1.32-25.39c-2.23-7.96-7.65-12.46-15.6-13.11c-8.61-0.71-14.81,2.77-17.98,11.04
			C1232.63,1107.78,1232.03,1112.78,1230.91,1117.61z"/>
	</g>
	<g>
		<path class="st0" d="M2430.13,1117.53c-0.61,3.25-1.1,8.61-2.67,13.62c-4.58,14.73-16.56,22.18-32.31,20.63
			c-13.86-1.36-23.94-11.53-25.36-26.39c-0.56-5.9-0.52-12.04,0.48-17.86c2.67-15.5,14.98-25.51,30.06-25.24
			c15.22,0.27,26.61,10.48,29.13,26.21C2429.83,1110.8,2429.82,1113.14,2430.13,1117.53z M2418.53,1117.27
			c-0.49-4.44-0.5-7.81-1.27-11c-2.07-8.56-7.75-13.42-15.88-14.08c-8.86-0.72-15.25,3.25-18.48,11.92
			c-3.1,8.32-3.57,16.83-0.74,25.36c2.82,8.52,8.3,12.62,16.89,12.72c8.96,0.1,13.98-3.35,16.88-12.4
			C2417.32,1125.42,2417.82,1120.77,2418.53,1117.27z"/>
	</g>
	<g>
		<path class="st0" d="M1915.76,1149.47c-4.15,0-7.09,0-10.77,0c0-21.53,0-42.93,0-64.91c2.92-0.16,5.79-0.32,8.74-0.48
			c0.92,2.42,1.69,4.45,2.7,7.1c7.77-7.08,16.32-9.65,26.15-7.6c7.21,1.51,11.82,5.7,13.77,12.79c0.44,1.6,1.1,3.23,1.11,4.85
			c0.08,15.88,0.05,31.76,0.05,48.09c-3.77,0-6.94,0-11.26,0c0-9.81,0.01-19.36-0.01-28.91c-0.01-4.66-0.08-9.31-0.11-13.97
			c-0.08-13.89-11.97-16.11-21.13-11.37c-6.03,3.12-9.09,8.56-9.11,15.52c-0.03,10.64-0.09,21.29-0.13,31.93
			C1915.76,1144.46,1915.76,1146.41,1915.76,1149.47z"/>
	</g>
	<g>
		<path class="st0" d="M2533.79,1149.32c-4.18,0-7.35,0-11.54,0c0-7.33,0.03-14.24-0.01-21.14c-0.05-7.98,0.27-16-0.37-23.93
			c-0.69-8.46-6.12-12.29-14.45-11.24c-8.81,1.11-14.93,7.41-15.39,16.79c-0.45,9.29-0.21,18.62-0.26,27.93
			c-0.02,3.61,0,7.22,0,11.51c-3.86,0.23-7.02,0.41-10.86,0.63c0-22.05,0-43.49,0-65.35c3.16,0,6.04,0,9.12,0
			c0.65,1.92,1.27,3.76,1.98,5.87c0.92-0.31,1.94-0.36,2.55-0.9c6.76-5.91,14.57-7.51,23.26-6.05c7.68,1.29,12.64,5.56,14.57,13.12
			c0.66,2.56,1.33,5.21,1.35,7.83C2533.86,1119.01,2533.79,1133.62,2533.79,1149.32z"/>
	</g>
	<g>
		<path class="st0" d="M2323.66,1105.87c-3.4,0-6.33,0-9.98,0c-0.62-1.42-1.37-3.15-2.14-4.88c-2.57-5.77-7.05-8.7-13.34-8.64
			c-6.53,0.06-11.65,2.75-14.48,8.81c-4.56,9.77-5.2,19.86-1.57,30.05c2.34,6.57,7,10.34,14.18,10.64
			c6.79,0.29,11.41-2.96,14.38-8.81c1.03-2.03,1.81-4.18,2.69-6.25c3.58,0,6.76,0,10.02,0c-2.81,16.33-10.89,23.96-25.65,24.71
			c-13.3,0.68-23.97-7.24-28-20.96c-3.12-10.63-2.38-21.14,2.11-31.2c6.77-15.18,24.61-21.39,39.54-14.06
			C2319.84,1089.41,2322.84,1096.68,2323.66,1105.87z"/>
	</g>
	<g>
		<path class="st0" d="M1661.73,1066.32c3.99,0,6.9,0,10.48,0c0.19,3.08,0.43,5.95,0.53,8.82c0.09,2.61,0.02,5.23,0.02,8.25
			c3.37,0.45,6.25,0.84,9.87,1.33c0.25,2.3,0.52,4.74,0.85,7.71c-3.65,0.68-6.76,1.25-9.99,1.85c0,15.05,0,29.83,0,45
			c3.35,0.91,6.14,1.67,9.41,2.56c0,2.41,0,4.9,0,7.56c-1.68,0.34-2.95,0.75-4.24,0.83c-12.97,0.85-16.7-2.55-16.87-15.82
			c-0.16-12.97-0.04-25.94-0.04-39.51c-2.66-0.78-5.35-1.57-8.48-2.5c-0.15-2.15-0.3-4.38-0.49-7.11c3.02-0.74,5.79-1.42,8.94-2.2
			C1661.73,1077.82,1661.73,1072.54,1661.73,1066.32z"/>
	</g>
	<g>
		<path class="st0" d="M1176.63,1059.15c0.22,3.03,0.4,5.55,0.57,7.91c-3.52,1.75-7.68,2.54-9.39,5.02
			c-1.84,2.67-1.38,6.93-2.03,11.2c3.64,0.6,6.74,1.11,10.61,1.74c0.24,2.23,0.51,4.66,0.84,7.66c-3.82,0.52-6.99,0.95-10.97,1.5
			c0,18.09,0,36.24,0,54.97c-3.89,0-7.01,0-10.62,0c0-18.04,0-35.94,0-54.25c-3.12-0.82-5.9-1.54-9.11-2.38
			c-0.12-2.12-0.25-4.34-0.4-7.08c3.03-0.68,5.8-1.3,9.2-2.06c0-1.93-0.04-3.85,0.01-5.77
			C1155.73,1061.99,1159.16,1058.82,1176.63,1059.15z"/>
	</g>
	<g>
		<path class="st0" d="M2861.16,1060.22c3.85,0,6.77,0,10.26,0c0,29.66,0,59.03,0,89.15c-3.3,0.15-6.46,0.3-10.26,0.48
			C2861.16,1119.83,2861.16,1090.46,2861.16,1060.22z"/>
	</g>
	<g>
		<path class="st0" d="M1342.73,1149.72c-2.96,0-4.6,0.05-6.23-0.02c-1.25-0.06-2.5-0.27-4.19-0.46c0-21.46,0-42.59,0-64.61
			c3.09-0.15,6.17-0.3,9.32-0.45c0.4,2.91,0.7,5.09,1.05,7.72c1.21-0.57,2.23-0.76,2.8-1.36c4.68-5.02,9.79-8.81,17.74-6.99
			c0,3.43,0,6.61,0,10.19c-1.13,0.21-2.36,0.45-3.6,0.66c-11.47,1.89-16.21,6.83-16.77,18.47c-0.4,8.28-0.11,16.59-0.12,24.88
			C1342.73,1141.37,1342.73,1144.99,1342.73,1149.72z"/>
	</g>
	<g>
		<path class="st0" d="M1733.3,1084.82c3.08,0,6.25,0,10.01,0c0,21.35,0,42.48,0,64.4c-3.15,0.22-6.3,0.45-9.35,0.67
			C1731.85,1142.54,1731.43,1096.83,1733.3,1084.82z"/>
	</g>
	<g>
		<path class="st0" d="M2805.4,1084.27c0,22.27,0,43.15,0,64.82c-3.3,0.24-6.45,0.46-10.34,0.74c0-21.7,0-42.83,0-64.79
			C2798.06,1084.81,2801.22,1084.58,2805.4,1084.27z"/>
	</g>
	<g>
		<path class="st0" d="M1732.67,1060.42c3.6,0,6.76,0,10.59,0c0,3.76,0,7.48,0,11.55c-3.61,0-7.11,0-10.59,0
			C1732.67,1067.93,1732.67,1064.41,1732.67,1060.42z"/>
	</g>
	<g>
		<path class="st0" d="M2805.57,1059.85c0,4.77,0,8.26,0,12.14c-3.84,0-7.34,0-10.93,0c0-4,0-7.52,0-11.65
			C2798.2,1060.19,2801.35,1060.04,2805.57,1059.85z"/>
	</g>
</g>
</svg>
