<svg id="Calque_1" data-name="Calque 1" xmlns="http://www.w3.org/2000/svg" viewBox="0 0 3618.49 525.63"><defs><style>.cls-1{fill:#050505;}.cls-2{fill:#070707;}.cls-3{fill:#0c0c0c;}.cls-4{fill:#101010;}.cls-5{fill:#0b0b0b;}.cls-6{fill:#040404;}.cls-7{fill:#0e0e0e;}.cls-8{fill:#111;}.cls-9{fill:#0d0d0d;}.cls-10{fill:#0f0f0f;}.cls-11{fill:#141414;}.cls-12{fill:#1b1b1b;}.cls-13{fill:#181818;}.cls-14{fill:#fefefe;}.cls-15{fill:#f5f5f5;}.cls-16{fill:#f0f0f0;}.cls-17{fill:#f4f4f4;}.cls-18{fill:#eee;}.cls-19{fill:#f9f9f9;}.cls-20{fill:#f7f7f7;}</style></defs><path class="cls-1" d="M3843.55,741h-31.79a27.18,27.18,0,0,1-1.67-3.61c-12.38-43-42-67-84.82-74.81-27.79-5.1-55.22-1.89-80.82,10.92-29.82,14.92-47.73,40.08-57.27,71.13-11.82,38.43-15.43,77.8-7,117.42,8.21,38.48,27.53,69.76,63,89.27,24.38,13.42,50.57,15.68,77.58,11.8,50.23-7.22,87.47-45.34,93.6-97.52,1.16-9.84,2-19.72,3.16-30.71h-115V807.68h145V983.05h-27.07c0-8.89-.07-18.08-.08-27.27,0-8.92,0-17.84-1.52-27.43-2.93,4.13-5.81,8.31-8.81,12.39-19.28,26.15-45,42-76.89,48-31.28,5.86-62.29,5.65-92.65-5-33.73-11.78-58.06-34.35-74.38-65.86-13.72-26.49-19.9-55-21.8-84.48-1.92-29.7-.5-59.28,7.63-88.19,16-57,51.09-95.39,109.85-108.05,41.36-8.91,82.27-5.67,120.38,15C3811.46,668,3837,699.67,3843.55,741Z" transform="translate(-229.09 -626.43)"/><path class="cls-2" d="M1655.38,688.57V983H1624.3c-1.78-6.63-2.36-327-.45-340.46h36l195.76,295.92,2-.54V642.45h32v340.6H1852.2L1657.58,687.9Z" transform="translate(-229.09 -626.43)"/><path class="cls-2" d="M3245.3,688.49V983.23h-31.9V642.63h36.53l195.64,295.73c.89-.51,1.2-.64,1.46-.84s.6-.43.6-.65q.23-146.45.41-292.89c0-.28.28-.56.72-1.43h30.69V982.94h-37.32c-64.46-97.76-129.47-196.36-194.49-295Z" transform="translate(-229.09 -626.43)"/><path class="cls-1" d="M1241.77,813.11c0-32,4.89-63.17,18.74-92.2,28.24-59.19,75.73-88.16,141.17-87.83,31.31.16,60.6,7.4,87,24.95,25.54,17,44,40,54.82,68.25,23.34,61.2,23.83,122.77-4.62,182.36-24.89,52.13-68,79.54-125.74,83.38-21.74,1.45-43.36.06-64.2-6.87-45.28-15.06-75.66-45.82-92.86-89.89C1245.79,868.89,1241.64,841.34,1241.77,813.11Zm32.17.5a213,213,0,0,0,6.59,54.43c6.83,27,19.08,51.16,40.61,69.64,21.95,18.84,47.89,26.22,76.48,27.15,52.22,1.69,95.36-24.93,115.13-73.22,17.89-43.69,19-88.76,8.06-134.29-6.13-25.44-17.78-48.07-37.1-66.13-22.25-20.81-49.37-29.7-79.29-30.55-49.12-1.39-86.26,19.11-110,62.34C1278.9,751.11,1274.39,782,1273.94,813.61Z" transform="translate(-229.09 -626.43)"/><path class="cls-1" d="M1949,882.1c3.22-.18,5.48-.41,7.76-.43,7.62,0,15.25,0,23,0,1.42,7.16,2.41,13.75,4.07,20.16,7.61,29.51,26,49.16,55.23,57.67,25.09,7.32,50.67,7.83,75.91.49,36.77-10.7,55.56-41.44,48.92-79.12-2.38-13.52-10-23.73-20.67-31.93-12.34-9.53-26.62-15-41.51-18.88-25.72-6.78-51.63-12.89-77.2-20.2-19.15-5.47-36-15.18-49.46-30.51-25.87-29.53-28.14-93.3,20.56-125.54a117.8,117.8,0,0,1,49.09-18.54c25.32-3.57,50.46-3.29,75.1,4.7,41.95,13.6,67.92,49.58,67.39,94.79-10,.45-20.07.32-30.33,0-.48-5.47-.56-10.16-1.35-14.71-4-22.91-16.19-40.26-37.45-49.74-30.74-13.7-62.17-13.79-92.89.08-20,9.05-32.88,24.87-36,47.1-2.84,20.22,2.9,37.55,19.75,50.27,12.18,9.21,26.2,14.4,40.74,18.22,26.05,6.84,52.22,13.23,78.25,20.1a118.19,118.19,0,0,1,18.7,6.9c35.2,16.06,52.32,44,50.94,82.72-1.58,44.27-24.18,74.81-66.5,88.29a182.69,182.69,0,0,1-107.34,1.63c-44.34-12.65-71.4-47.39-74.17-93.45C1949.31,889.22,1949.17,886.26,1949,882.1Z" transform="translate(-229.09 -626.43)"/><path class="cls-3" d="M474.91,875.9h44.2c.91,6.17,1.6,12.37,2.75,18.49,5.93,31.49,23.92,52.11,55.27,60.1,22.67,5.77,45.55,6.26,68.12-.32,33-9.63,49.32-35.29,44.65-69.24-1.79-13.07-9.14-22.66-19.4-30.23-11.43-8.43-24.5-13.3-38.12-16.84-25.42-6.6-51-12.78-76.23-19.94-9.5-2.69-18.71-7-27.47-11.64-57.56-30.6-58-105.87-20.85-143.75a109,109,0,0,1,48.38-28.75c34.15-9.85,68.41-10.3,102.13,1.67,45.18,16,69.59,54.65,69.09,103.84a16.19,16.19,0,0,1-.82,3.26c-2.24.2-4.49.56-6.75.57-12.27,0-24.54,0-38,0,0-5.47.31-10.06-.06-14.61-1.73-21.34-10.77-38.83-30.19-48.63-31.38-15.83-63.62-16.15-94.91.17-23,12-32.74,35.87-26.78,59.91,2.83,11.4,9.94,19.36,19.43,25.58,12.71,8.32,27,12.81,41.56,16.43,21.62,5.36,43.35,10.33,64.88,16.06A170.67,170.67,0,0,1,683,807.84c40,18.33,56.69,50,54.08,92.43-2.94,47.52-27.64,78.51-73.59,92.27-37.91,11.35-76.31,11.75-114.09-.7C500,975.55,471.2,932,474.91,875.9ZM712.54,728.13c-.48-4.44-.6-8.39-1.37-12.21-6.91-33.93-26.89-57-59.6-67.65-33.65-11-67.56-10-100.81,2.6a89.77,89.77,0,0,0-35,24.19c-27.56,30.42-29,92.62,19.59,118.66,7.58,4.06,15.54,7.86,23.78,10.16,25.62,7.13,51.48,13.38,77.2,20.18,15.53,4.1,30.4,9.83,43.36,19.65,12.66,9.6,21.54,21.74,24.14,37.73,6.63,40.74-14.09,74.52-53.62,86.28-25.8,7.68-52,7.29-77.93.33-35.2-9.46-56-32.9-64.09-68.1-.74-3.21-1.26-6.46-1.85-9.51h-17c2,44.79,26.94,76.82,69.12,89.42,23.37,7,47.23,7.62,71.26,5.17,16.66-1.7,32.81-5.57,47.8-13.34,23.6-12.25,39.09-31,43.47-57.48,1.78-10.71,1.72-21.92,1.06-32.81-1.3-21.53-11.4-38.6-28.84-51.3A100,100,0,0,0,660,814.29c-24.09-6.43-48.35-12.19-72.51-18.36-18.13-4.63-35.74-10.44-51-21.95-14.6-11-21.89-25.87-22.45-43.74-1-31,14-53.1,41.51-65.82,30.11-13.92,61.46-13.91,92.31-2.22,25.87,9.8,41.83,28.76,47,56.29.59,3.18,1.17,6.36,1.77,9.64Z" transform="translate(-229.09 -626.43)"/><path class="cls-2" d="M2256.61,642.33h31.91v10.56q0,93.48,0,187c0,19,1.1,37.92,5.28,56.58,8.89,39.73,31.55,61.35,71.86,66.94,18.88,2.62,37.95,2.37,56.67-1.87,35.26-8,54.18-31.46,61.65-65.69,4-18.35,4.59-37,4.6-55.63V642.67h31.85c.21,2.26.65,4.8.65,7.34q0,101,0,201.94c0,19.69-1.45,39.28-7.17,58.31-11.61,38.56-35.68,65-75.09,75.73a187.11,187.11,0,0,1-99.69.09c-39.45-10.7-63.42-37.24-75.27-75.62-5.35-17.32-7.47-35.18-7.52-53.21-.18-70-.09-140-.1-209.94C2256.24,646,2256.43,644.71,2256.61,642.33Z" transform="translate(-229.09 -626.43)"/><path class="cls-1" d="M1158.8,871.44h33a170.81,170.81,0,0,1-17,47.87c-21.71,41.41-56.36,64.45-102.29,71.09-21.26,3.08-42.59,3.27-63.6-1.34-45.84-10-76.66-38.28-94.67-80.88C900.64,876,897.1,842,897.46,807.44c.31-29.17,3.82-57.72,14.77-85.05q29.22-72.89,106.48-86.09c29.2-5,58.46-5.21,87,3.94,43.79,14.06,69.66,44.7,80.34,88.87.85,3.5,1.36,7.09,2.18,11.45h-32.59c-.61-1.8-1.29-3.94-2-6-2.46-6.88-4.6-13.9-7.5-20.6-9.78-22.65-26.55-38-49.89-45.85a141.07,141.07,0,0,0-73.91-4.89c-33.29,6.68-56.56,26.75-72.43,56.11-11.1,20.53-16.52,42.77-18.78,65.79-3.5,35.86-1.26,71.28,11.17,105.39,11.88,32.58,32.68,57.71,66.6,68.18,35.79,11.05,71.16,9.75,103.17-12.71,22.77-16,35.81-38.89,43.89-65C1156.89,877.82,1157.82,874.67,1158.8,871.44Z" transform="translate(-229.09 -626.43)"/><path class="cls-1" d="M2896.15,669.88H2788.83V642.53h247V669.7H2928.38V983.22h-30.72c-.11-.1-.36-.32-.59-.56s-.53-.48-.58-.75a17.53,17.53,0,0,1-.33-3C2896.15,876.37,2896.15,773.8,2896.15,669.88Z" transform="translate(-229.09 -626.43)"/><path class="cls-4" d="M275.33,949.72h182.3v41.41H229.09V636.53h46.24Zm-31.67-299.4v326.5H443.45V963.67H261.08V806.75c0-26.32.11-52.64,0-79-.13-25.78.6-51.58-.46-77.47Z" transform="translate(-229.09 -626.43)"/><path class="cls-5" d="M2631,956h182.78v27.47H2600.53c-2.21-7-3.11-321.64-.94-340.84H2631Z" transform="translate(-229.09 -626.43)"/><path class="cls-6" d="M3125.76,983.19h-31.09V642.66h31.09Z" transform="translate(-229.09 -626.43)"/><path class="cls-3" d="M1499.07,1149.47h-11.23v-10.7c0-11,.11-22,0-33-.12-8.59-2.66-11.69-9.61-12.56s-14,2.93-15.75,9.44a57.6,57.6,0,0,0-1.46,13.84c-.2,10.62-.07,21.25-.07,32.69l-11.13.62v-28.17c0-5.33.15-10.66-.07-16-.33-8.18-2.78-11.6-8.65-12.64s-13.3,2.21-15.67,8.21a44.89,44.89,0,0,0-2.85,14.53c-.41,11-.13,21.93-.13,33.42H1412V1085c5.42-1.91,10-1.77,11.79,5,17.17-10.05,24.47-9.65,35.22,2,2.16-1.71,4.26-3.64,6.6-5.19,14.51-9.64,32-2.25,33.21,14.91C1500,1117.2,1499.07,1132.85,1499.07,1149.47Z" transform="translate(-229.09 -626.43)"/><path class="cls-7" d="M2154.48,1149.43c-12.86.46-12.86.46-22.28-9.21-2,1.58-4,3.22-6,4.79-9.85,7.53-20.83,8.65-32.07,4.44-15.73-5.89-19.2-28.71-6.41-40.87,3.32-3.15,7.22-5.68,11.3-8.84-2-3.34-4-6.28-5.65-9.44-4.61-9-3.19-18.48,3.5-24.66s19.13-7.39,27-2.38c9.66,6.19,11,19.87,2.7,29.75-2.73,3.24-6.19,5.87-10,9.39l15.35,18.26c1.7-4.92,2.95-8.56,4.39-12.69h10.44c-2.37,8-4.52,15.22-6.8,22.89Zm-48.6-41.64c-8.87,5.44-16.31,11-14.31,22.36,1,5.69,6,10.19,12.41,11.48,8.2,1.64,16.41-2.34,21.62-10.66-5.65-6.89-11.33-13.85-17.06-20.78A27,27,0,0,0,2105.88,1107.79Zm4.43-12.15c3.93-4.23,7.29-7,9.55-10.51,3.19-4.93,2.1-10.3-1.82-13.49-3.26-2.64-9.72-2.7-13.07-.12s-4.68,7.86-2.32,12.71C2104.36,1087.73,2107,1090.77,2110.31,1095.64Z" transform="translate(-229.09 -626.43)"/><path class="cls-8" d="M1604,1140.51l7.31,2.61c-.13,2.27-.24,4.22-.33,5.9-5.83,4-12.63,1.71-17.87-5.14-6.63,2.66-12.81,6.36-19.44,7.55-14.47,2.6-25.23-7.69-24-21.7.74-8.36,5.64-13.59,13.22-15.71,7-2,14.33-2.81,21.56-3.78,4.31-.58,7.91-1.55,8.54-6.6.6-4.76-2.14-8.65-7.31-10.49-10.58-3.76-18.34-.25-23.22,10.77h-8.58c-.17-10.8,3-16,12.17-19.18a38.55,38.55,0,0,1,26.41.33c7.83,2.78,11.57,8.46,11.53,16.78C1604,1114.49,1604,1127.12,1604,1140.51Zm-12.15-22.89c-8.09,1.55-15.62,2.6-22.92,4.51-5.83,1.52-8.26,5.7-7.69,11,.54,5,4.31,8.29,10.24,8.88C1585.74,1143.46,1593.78,1134.19,1591.86,1117.62Z" transform="translate(-229.09 -626.43)"/><path class="cls-9" d="M2696.8,1120c-.33,12,3.52,18.94,10.94,21.35,9.54,3.11,16.68-.31,24.82-12h9.14c.11,6.08-3.07,10.32-6.64,14-14.36,14.89-40.57,10-48.24-9.18a41.77,41.77,0,0,1,.86-34c5.73-12.48,17.59-18.88,30.9-17,13.47,1.93,21.56,10,24,24.26.65,3.87.8,7.83,1.26,12.52Zm-.1-8.56h34.56c-.77-12.61-6.63-19.07-17.06-19.07C2704.21,1092.35,2697.57,1099.45,2696.7,1111.43Z" transform="translate(-229.09 -626.43)"/><path class="cls-10" d="M2634.43,1102.74l-8.32.48c-6-9.92-12.28-13-21.48-10.67-4.18,1-7.59,3.25-7.86,7.87-.23,4.19,2.64,6.75,6.38,7.92,6.34,2,12.81,3.55,19.16,5.5,10.88,3.35,15.31,8.45,15.16,17.1a20.08,20.08,0,0,1-15.86,19.37,54.61,54.61,0,0,1-18.72,1c-11.81-1.5-17.22-8.13-18.86-21.83l9-.53c5.46,12.33,13.3,16.22,24.8,12.57,4.27-1.35,8-3.5,8.27-8.79.28-5.51-3.32-7.54-7.79-8.81-6.72-1.9-13.55-3.44-20.13-5.73-10.61-3.69-14.29-9.91-12.33-19.67a16.66,16.66,0,0,1,.45-2c3.08-9.49,14.59-15.36,27.19-13.88C2626.93,1084.3,2633.23,1090.15,2634.43,1102.74Z" transform="translate(-229.09 -626.43)"/><path class="cls-7" d="M1793,1116.43c.58-3.14,1-8.53,2.59-13.51,4.45-13.63,15.79-21.27,29.56-20.59,14.25.7,25.13,9.61,27.58,24.13a58,58,0,0,1-.5,20.65c-3.56,17.69-15.64,26.31-33,24.68-14.9-1.39-24.59-12.35-25.83-29.22C1793.36,1121.24,1793.27,1119.91,1793,1116.43Zm49.53.92c-.49-4.2-.54-7.91-1.42-11.4-2.16-8.57-7.86-13.25-16.1-13.79-8.8-.57-15.21,3.54-18.29,12.25-2.82,8-3.4,16.18-.77,24.43,2.9,9.12,8.35,13.35,17.41,13.34s13.68-3.44,16.63-12.72C1841.31,1125.4,1841.8,1121.09,1842.56,1117.35Z" transform="translate(-229.09 -626.43)"/><path class="cls-10" d="M1280.86,1117.54c-.54,3-.92,8.43-2.49,13.43-4.55,14.55-14.79,21.45-30.08,20.93-14-.48-23.51-8.74-27.08-23.39a45.48,45.48,0,0,1,1.56-26.49,29.1,29.1,0,0,1,31.3-19.55c14.8,1.74,24.76,11.92,26.24,26.84C1280.51,1111.3,1280.58,1113.29,1280.86,1117.54Zm-49.95.07c1,4.77,1.52,9.45,3.13,13.71,3,7.94,8.45,11.09,17.06,10.84,8.15-.23,12.49-3.33,15.54-11.47a40.08,40.08,0,0,0,1.32-25.39c-2.24-8-7.66-12.46-15.6-13.12-8.61-.71-14.81,2.78-18,11C1232.63,1107.78,1232,1112.78,1230.91,1117.61Z" transform="translate(-229.09 -626.43)"/><path class="cls-7" d="M2430.13,1117.53c-.61,3.25-1.11,8.6-2.67,13.62-4.58,14.73-16.55,22.18-32.31,20.63-13.86-1.36-23.94-11.52-25.36-26.38a68.43,68.43,0,0,1,.48-17.86c2.67-15.51,15-25.51,30.06-25.24s26.61,10.48,29.13,26.21C2429.83,1110.8,2429.82,1113.14,2430.13,1117.53Zm-11.6-.26c-.49-4.44-.5-7.82-1.27-11-2.07-8.55-7.75-13.42-15.88-14.08-8.86-.72-15.25,3.26-18.48,11.92a37.3,37.3,0,0,0-.74,25.37c2.82,8.52,8.3,12.62,16.89,12.71,9,.11,14-3.35,16.87-12.39C2417.32,1125.42,2417.82,1120.77,2418.53,1117.27Z" transform="translate(-229.09 -626.43)"/><path class="cls-11" d="M1915.76,1149.47H1905v-64.91l8.74-.48,2.7,7.1c7.77-7.09,16.33-9.66,26.15-7.6,7.21,1.5,11.82,5.69,13.77,12.79a19.56,19.56,0,0,1,1.11,4.85c.08,15.88,0,31.76,0,48.09h-11.26c0-9.81,0-19.36,0-28.91,0-4.66-.07-9.31-.1-14-.09-13.89-12-16.11-21.13-11.37-6,3.12-9.09,8.56-9.11,15.52q-.06,16-.13,31.93C1915.76,1144.46,1915.76,1146.41,1915.76,1149.47Z" transform="translate(-229.09 -626.43)"/><path class="cls-11" d="M2533.79,1149.32h-11.54c0-7.33,0-14.24,0-21.14,0-8,.27-16-.37-23.94-.69-8.45-6.12-12.29-14.45-11.24-8.81,1.11-14.93,7.41-15.39,16.79s-.21,18.62-.26,27.94c0,3.61,0,7.22,0,11.51l-10.86.63v-65.34H2490l2,5.87a7.88,7.88,0,0,0,2.55-.9c6.75-5.91,14.57-7.51,23.25-6,7.68,1.29,12.64,5.56,14.58,13.12a34,34,0,0,1,1.35,7.82C2533.86,1119,2533.79,1133.62,2533.79,1149.32Z" transform="translate(-229.09 -626.43)"/><path class="cls-8" d="M2323.66,1105.87h-10c-.62-1.41-1.37-3.15-2.14-4.88-2.57-5.77-7-8.7-13.34-8.64-6.53.06-11.65,2.75-14.48,8.81a38.32,38.32,0,0,0-1.57,30c2.33,6.57,7,10.34,14.18,10.64,6.79.29,11.4-3,14.38-8.81,1-2,1.81-4.18,2.69-6.25h10c-2.81,16.33-10.89,24-25.65,24.72-13.3.68-24-7.24-28-21a44.09,44.09,0,0,1,2.1-31.2,29,29,0,0,1,39.54-14.06C2319.84,1089.41,2322.84,1096.68,2323.66,1105.87Z" transform="translate(-229.09 -626.43)"/><path class="cls-9" d="M1661.73,1066.32h10.48c.19,3.08.43,6,.53,8.82.09,2.61,0,5.23,0,8.25l9.87,1.33c.25,2.3.52,4.74.85,7.71l-10,1.85v45l9.41,2.56v7.57a36.34,36.34,0,0,1-4.24.83c-13,.84-16.71-2.55-16.87-15.82-.16-13,0-26,0-39.51l-8.47-2.5c-.15-2.15-.3-4.37-.49-7.11l8.94-2.2Z" transform="translate(-229.09 -626.43)"/><path class="cls-10" d="M1176.63,1059.14c.22,3,.4,5.56.57,7.92-3.52,1.75-7.68,2.54-9.39,5-1.84,2.67-1.38,6.93-2,11.2l10.61,1.74c.24,2.22.51,4.66.84,7.66l-11,1.49v55h-10.62v-54.26l-9.11-2.38c-.12-2.11-.25-4.34-.4-7.08l9.2-2.06c0-1.93,0-3.85,0-5.77C1155.73,1062,1159.16,1058.82,1176.63,1059.14Z" transform="translate(-229.09 -626.43)"/><path class="cls-12" d="M2861.16,1060.22h10.26v89.15l-10.26.48Z" transform="translate(-229.09 -626.43)"/><path class="cls-3" d="M1342.73,1149.72c-3,0-4.59.06-6.22,0-1.26-.06-2.5-.27-4.19-.46v-64.61l9.32-.45,1.06,7.72c1.21-.57,2.23-.75,2.79-1.36,4.68-5,9.79-8.82,17.74-7v10.18c-1.13.21-2.36.46-3.6.66-11.47,1.89-16.21,6.83-16.77,18.47-.4,8.28-.11,16.59-.12,24.89C1342.73,1141.37,1342.73,1145,1342.73,1149.72Z" transform="translate(-229.09 -626.43)"/><path class="cls-13" d="M1733.3,1084.82h10v64.4l-9.35.67C1731.85,1142.54,1731.43,1096.83,1733.3,1084.82Z" transform="translate(-229.09 -626.43)"/><path d="M2805.4,1084.27v64.81l-10.34.74V1085Z" transform="translate(-229.09 -626.43)"/><path class="cls-12" d="M1732.67,1060.42h10.59V1072h-10.59Z" transform="translate(-229.09 -626.43)"/><path class="cls-12" d="M2805.57,1059.85V1072h-10.92v-11.64Z" transform="translate(-229.09 -626.43)"/><path class="cls-14" d="M1273.94,813.61c.45-31.64,5-62.5,20.44-90.63,23.78-43.23,60.92-63.73,110-62.34,29.92.85,57,9.74,79.29,30.55,19.32,18.06,31,40.69,37.1,66.13,11,45.53,9.83,90.6-8.06,134.29-19.77,48.29-62.91,74.91-115.13,73.22-28.59-.93-54.53-8.31-76.48-27.15-21.53-18.48-33.78-42.6-40.61-69.64A213,213,0,0,1,1273.94,813.61Z" transform="translate(-229.09 -626.43)"/><path class="cls-15" d="M712.54,728.13H696.7c-.6-3.28-1.18-6.46-1.77-9.64-5.18-27.53-21.14-46.49-47-56.29-30.85-11.69-62.2-11.7-92.31,2.22-27.52,12.72-42.49,34.77-41.51,65.82C514.66,748.11,522,763,536.55,774c15.23,11.51,32.84,17.32,51,21.95,24.16,6.17,48.42,11.93,72.51,18.36a100,100,0,0,1,33.18,15.81c17.44,12.7,27.54,29.77,28.84,51.3.66,10.89.72,22.1-1.06,32.81-4.38,26.47-19.87,45.23-43.47,57.48-15,7.77-31.14,11.64-47.8,13.34-24,2.45-47.89,1.8-71.26-5.17-42.18-12.6-67.12-44.63-69.12-89.42h17c.59,3,1.11,6.3,1.85,9.51,8.08,35.2,28.89,58.64,64.09,68.1,25.9,7,52.13,7.35,77.93-.33,39.53-11.76,60.25-45.54,53.62-86.28-2.6-16-11.48-28.13-24.14-37.73-13-9.82-27.83-15.55-43.36-19.65-25.72-6.8-51.58-13-77.2-20.18-8.24-2.3-16.2-6.1-23.78-10.16-48.57-26-47.15-88.24-19.59-118.66a89.77,89.77,0,0,1,35-24.19c33.25-12.62,67.16-13.6,100.81-2.6,32.71,10.69,52.69,33.72,59.6,67.65C711.94,719.74,712.06,723.69,712.54,728.13Z" transform="translate(-229.09 -626.43)"/><path class="cls-16" d="M243.66,650.32h16.93c1.06,25.89.33,51.69.46,77.47.14,26.32,0,52.64,0,79V963.67H443.45v13.15H243.66Z" transform="translate(-229.09 -626.43)"/><path class="cls-17" d="M2105.88,1107.79a27,27,0,0,1,2.66,2.4c5.73,6.93,11.41,13.89,17.06,20.78-5.21,8.32-13.42,12.3-21.62,10.66-6.44-1.29-11.41-5.79-12.41-11.48C2089.57,1118.77,2097,1113.23,2105.88,1107.79Z" transform="translate(-229.09 -626.43)"/><path class="cls-16" d="M2110.31,1095.64c-3.32-4.87-5.95-7.91-7.66-11.41-2.36-4.85-1.1-10.08,2.32-12.71s9.81-2.52,13.07.12c3.92,3.19,5,8.56,1.82,13.49C2117.6,1088.63,2114.24,1091.41,2110.31,1095.64Z" transform="translate(-229.09 -626.43)"/><path class="cls-15" d="M1591.86,1117.62c1.92,16.57-6.12,25.84-20.37,24.44-5.93-.59-9.7-3.86-10.24-8.88-.57-5.35,1.86-9.53,7.69-11C1576.24,1120.22,1583.77,1119.17,1591.86,1117.62Z" transform="translate(-229.09 -626.43)"/><path class="cls-18" d="M2696.7,1111.43c.87-12,7.51-19.08,17.5-19.07,10.43,0,16.29,6.46,17.06,19.07Z" transform="translate(-229.09 -626.43)"/><path class="cls-19" d="M1842.56,1117.35c-.76,3.74-1.25,8.05-2.54,12.11-3,9.28-7.68,12.7-16.63,12.72s-14.51-4.22-17.41-13.34c-2.63-8.25-2-16.43.77-24.43,3.08-8.71,9.49-12.82,18.29-12.25,8.24.54,13.94,5.22,16.1,13.79C1842,1109.44,1842.07,1113.15,1842.56,1117.35Z" transform="translate(-229.09 -626.43)"/><path class="cls-20" d="M1230.91,1117.61c1.12-4.83,1.72-9.83,3.47-14.39,3.17-8.26,9.37-11.75,18-11,7.94.66,13.36,5.15,15.6,13.12a40.08,40.08,0,0,1-1.32,25.39c-3.05,8.14-7.39,11.24-15.54,11.47-8.61.25-14-2.9-17.06-10.84C1232.43,1127.06,1232,1122.38,1230.91,1117.61Z" transform="translate(-229.09 -626.43)"/><path class="cls-19" d="M2418.53,1117.27c-.71,3.5-1.21,8.15-2.61,12.52-2.89,9-7.91,12.5-16.87,12.39-8.59-.09-14.07-4.19-16.89-12.71a37.3,37.3,0,0,1,.74-25.37c3.23-8.66,9.62-12.64,18.48-11.92,8.13.66,13.81,5.53,15.88,14.08C2418,1109.45,2418,1112.83,2418.53,1117.27Z" transform="translate(-229.09 -626.43)"/></svg>