<svg xmlns="http://www.w3.org/2000/svg" viewBox="0 0 139.69 97.23"><defs><style>.cls-1{fill:#399ee5;}</style></defs><g id="Calque_2" data-name="Calque 2"><g id="Mains_V" data-name="Mains V"><path class="cls-1" d="M18.87,41.64a6.22,6.22,0,0,0-4.4,1.82L9.26,48.67a6.23,6.23,0,1,0,8.81,8.81l3.23-3.22,2-2a6.23,6.23,0,0,0-4.41-10.63Z"/><path class="cls-1" d="M55.56,89.84l5.58,5.57A6.23,6.23,0,0,0,70,86.6L63.38,80a9,9,0,0,1-2.45,4.43Z"/><path class="cls-1" d="M12.35,41.34a9.21,9.21,0,0,1,15.73,6.13l1.84-1.83a9.23,9.23,0,0,1,15.16,9.77,9.21,9.21,0,0,1,9.05,13.31,9.2,9.2,0,0,1,9.24,7L79.1,91.51A6.22,6.22,0,0,0,89.73,87.1a6.17,6.17,0,0,0-1.81-4.4L68.78,63.56a1.51,1.51,0,0,1,0-2.12,1.49,1.49,0,0,1,2.12,0L90,80.57,95.5,86a6.23,6.23,0,1,0,8.82-8.81l-24.6-24.6a1.5,1.5,0,0,1,2.12-2.12l24.6,24.6,5.47,5.46a6.23,6.23,0,0,0,8.81-8.81L82,33a3.17,3.17,0,0,0-2.81-.89L68,34.1c-5.13,1.52-10.41-1-11.81-5.53a9.26,9.26,0,0,1,6.08-11.5l14.83-6a20.41,20.41,0,0,0-15-5.89l-19.56.57a20.6,20.6,0,0,1-6-.71L36.4,5A20.4,20.4,0,0,1,30.59,2.4L28.08.77A4.71,4.71,0,0,0,21.68,2L.9,30.8a4.75,4.75,0,0,0,.35,6l7.5,8.15Z"/><path class="cls-1" d="M18.11,70.5a6.23,6.23,0,0,0,8.81,0l1.5-1.5L39.35,58.07l1.5-1.5A6.23,6.23,0,0,0,32,47.76l-6.63,6.63h0l-2,2-5.31,5.3A6.25,6.25,0,0,0,18.11,70.5Z"/><path class="cls-1" d="M137.09,34.14A4.73,4.73,0,0,0,133,29.8l-8-1c-.51-.07-1-.16-1.52-.28l-2.43-.56a15.26,15.26,0,0,1-4.54-1.86L96.8,14a15.39,15.39,0,0,0-11.11-1.95l-5.27,1.07-1,.3h0L63.36,19.87l-.12.05a6.26,6.26,0,0,0-4.15,7.77,5.24,5.24,0,0,0,3.1,3.3,7.56,7.56,0,0,0,5.06.21l.17,0,11.21-2a6.2,6.2,0,0,1,5.46,1.72l38.75,38.75a9.13,9.13,0,0,1,2.58,5.14l10.36-1.51a4.73,4.73,0,0,0,3.9-5Z"/><path class="cls-1" d="M54.41,71.71A6.2,6.2,0,0,0,50,73.53l-3.06,3.06-3.06,3.06a6.23,6.23,0,1,0,8.82,8.81l6.11-6.12a6.23,6.23,0,0,0-4.4-10.63Z"/><path class="cls-1" d="M45.88,58.37a6.18,6.18,0,0,0-4.4,1.82L30.54,71.12a6.23,6.23,0,0,0,8.81,8.81l5.47-5.46,3.06-3.06h0L50.29,69a6.23,6.23,0,0,0-4.41-10.63Z"/></g></g></svg>